<svg xmlns="http://www.w3.org/2000/svg" xmlns:xlink="http://www.w3.org/1999/xlink" fill-rule="evenodd"
    fill="currentColor" stroke="currentColor" version="1.1" x="0px" y="0px" viewBox="10.29 9.5 79.61 80.92"
    transform="matrix(-1,0,0,1,0,0)">
    <path
        d="M70.526,41.513l19.013-22.567c0.541-0.644,0.459-1.604-0.184-2.146c-0.644-0.542-1.605-0.459-2.147,0.184l-0.797,0.946  l-21.438-7.49c-0.093-0.224-0.24-0.43-0.441-0.594c-0.65-0.534-1.612-0.437-2.144,0.214l-15.498,18.93  c-0.562,0.183-0.962,0.679-1.034,1.262L32.166,46.974c0.498-0.16,0.996-0.33,1.491-0.51c-2.394,0.868-4.826,1.495-7.104,1.947  c0.351-0.07,0.704-0.143,1.062-0.221l-15.646-1.613c-0.833-0.087-1.585,0.522-1.672,1.359c-0.086,0.837,0.522,1.585,1.359,1.672  l2.015,0.208l8.184,9.751l-6.097,7.447c-0.533,0.65-0.438,1.61,0.214,2.144c0.283,0.231,0.625,0.345,0.964,0.345  c0.441,0,0.879-0.19,1.18-0.559l0.011-0.013L29.138,85.91l-1.686,2.001c-0.542,0.645-0.46,1.605,0.184,2.147  c0.286,0.24,0.634,0.358,0.98,0.358c0.434,0,0.865-0.185,1.166-0.542l20.194-23.969l20.56,0.438l0.051,0.408  c0.095,0.771,0.752,1.336,1.51,1.336c0.062,0,0.126-0.004,0.189-0.012c0.824-0.103,1.409-0.845,1.325-1.667l6.435,0.138  c0.012,0,0.022,0,0.034,0c0.826,0,1.505-0.66,1.522-1.49c0.018-0.841-0.649-1.538-1.491-1.557l-2.355-0.051l-4.972-3.734  L70.526,41.513z M69.398,57.174l-4.4-3.306c0.029-0.095,0.074-0.182,0.085-0.284c0.086-0.836-0.522-1.585-1.36-1.671l-1.802-0.186  l5.93-7.039L69.398,57.174z M83.155,18.942c-1.023,1.84-3.189,5.617-6.16,10.162l-8.147,9.671c-0.065,0-0.129-0.003-0.195,0.004  c-0.835,0.104-1.428,0.865-1.324,1.7l0.011,0.087l-9.986,11.853c-2.96,2.424-6.015,4.37-9.073,5.528  c-8.496,3.219-14.556,3.895-18.143,3.895c-1.869,0-3.195-0.181-4.006-0.337l-9.183-10.943c3.982-0.155,14.346-1.002,22.415-5.579  c15.55-8.822,24.297-27.807,26.159-32.201L83.155,18.942z M16.117,49.572c0.053-0.001,0.104-0.002,0.16-0.004  C16.224,49.57,16.167,49.571,16.117,49.572L16.117,49.572z M48.64,58.897c1.896-0.718,3.839-1.737,5.827-3.053l-5.883,6.983  l-13.773-0.294C38.353,62.078,42.964,61.047,48.64,58.897z M59.546,54.546l3.865,0.398c0.053,0.005,0.105,0.008,0.158,0.008  c0.305,0,0.579-0.111,0.821-0.27l5.182,3.892l0.562,4.527l-11.019-8.044L59.546,54.546z M81.672,23.554  c1.112-1.868,1.944-3.343,2.457-4.271l0.882,0.308L81.672,23.554z M46.331,34.481l0.47,3.788c0.951-0.864,1.863-1.756,2.74-2.671  l-0.542-4.375l15.415-18.829l0.149,0.052c-1.869,4.4-10.48,23.018-25.701,31.653c-0.701,0.397-1.422,0.763-2.153,1.105  c0.48-0.225,0.955-0.46,1.423-0.708L46.331,34.481z M36.637,45.239c-0.958,0.445-1.935,0.845-2.919,1.204  C34.702,46.083,35.679,45.684,36.637,45.239z M25.487,48.612c0.287-0.051,0.577-0.105,0.869-0.163  C26.063,48.506,25.774,48.561,25.487,48.612z M16.372,49.566c0.289-0.008,0.628-0.02,1.016-0.039  C17,49.546,16.661,49.558,16.372,49.566z M17.456,49.524c0.171-0.008,0.351-0.018,0.54-0.029  C17.807,49.506,17.626,49.516,17.456,49.524z M18.116,49.488c0.191-0.011,0.39-0.024,0.597-0.039  C18.506,49.463,18.307,49.477,18.116,49.488z M18.803,49.443c0.489-0.035,1.019-0.079,1.585-0.133  C19.822,49.365,19.293,49.409,18.803,49.443z M20.458,49.303c0.254-0.025,0.516-0.052,0.784-0.081  C20.974,49.251,20.712,49.278,20.458,49.303z M21.386,49.206c0.257-0.029,0.52-0.06,0.787-0.093  C21.906,49.146,21.643,49.177,21.386,49.206z M22.309,49.097c0.631-0.08,1.291-0.172,1.973-0.28  C23.599,48.924,22.94,49.017,22.309,49.097z M24.364,48.802c0.303-0.048,0.611-0.1,0.921-0.154  C24.975,48.702,24.667,48.754,24.364,48.802z M29.822,85.098l-11.021-16.99l5.046-6.163l0.351,0.417  c-0.657,0.159-1.153,0.738-1.168,1.445c-0.018,0.841,0.649,1.538,1.49,1.557l2.604,0.056c0.046,0.007,0.09,0.029,0.137,0.029  c0.046,0,0.091-0.018,0.137-0.023l18.661,0.398L29.822,85.098z M58.459,55.837l10.162,7.419l-16.123-0.344L58.459,55.837z   M76.015,63.414l-2.78-0.06l-0.278-2.237L76.015,63.414z">
    </path>
</svg>
